<svg width="25" height="22" viewBox="0 0 25 22" fill="none" xmlns="http://www.w3.org/2000/svg">
<path d="M15.4999 10.4375L13.2031 15.0781C13.0156 15.3594 12.7812 15.5 12.4999 15.5C12.2187 15.5 11.9999 15.3594 11.8437 15.0781L9.17181 9.125L7.76556 12.5H3.17181L11.4218 21.0312C11.7343 21.3438 12.0937 21.5 12.4999 21.5C12.9062 21.5 13.2656 21.3438 13.5781 21.0312L21.8281 12.5H16.5781L15.4999 10.4375ZM22.2031 1.95312C20.8593 0.859375 19.3749 0.375 17.7499 0.5C16.0937 0.65625 14.6562 1.34375 13.4374 2.5625L12.4999 3.5L11.5624 2.5625C10.3437 1.34375 8.90618 0.65625 7.24993 0.5C5.62493 0.375 4.14056 0.859375 2.79681 1.95312C1.45306 3.17188 0.703059 4.625 0.546809 6.3125C0.390559 8 0.812434 9.5625 1.81243 11H6.73431L8.42181 6.96875C8.57806 6.65625 8.81243 6.5 9.12493 6.5C9.40618 6.5 9.64056 6.64062 9.82806 6.92188L12.5468 13.0156L14.8437 8.42188C14.9999 8.14062 15.2187 8 15.4999 8C15.7812 8 16.0156 8.14062 16.2031 8.42188L17.4687 11H23.1874C24.1874 9.5625 24.6093 8 24.4531 6.3125C24.2968 4.625 23.5468 3.17188 22.2031 1.95312Z" fill="#6EB7AF"/>
</svg>
