<svg width="22" height="26" viewBox="0 0 22 26" fill="none" xmlns="http://www.w3.org/2000/svg">
<g clip-path="url(#clip0_8739_4641)">
<path d="M10.065 3.68309L5.973 10.2698C5.522 10.9848 6.05 11.9164 6.908 11.9164H15.081C15.939 11.9164 16.467 10.9848 16.016 10.2698L11.935 3.68309C11.506 2.98975 10.494 2.98975 10.065 3.68309Z" fill="white"/>
<path d="M17.05 23.833C19.7838 23.833 22 21.6504 22 18.958C22 16.2656 19.7838 14.083 17.05 14.083C14.3162 14.083 12.1 16.2656 12.1 18.958C12.1 21.6504 14.3162 23.833 17.05 23.833Z" fill="white"/>
<path d="M2.20001 23.2917H8.80001C9.40501 23.2917 9.90001 22.8042 9.90001 22.2083V15.7083C9.90001 15.1125 9.40501 14.625 8.80001 14.625H2.20001C1.59501 14.625 1.10001 15.1125 1.10001 15.7083V22.2083C1.10001 22.8042 1.59501 23.2917 2.20001 23.2917Z" fill="white"/>
</g>
<defs>
<clipPath id="clip0_8739_4641">
<rect width="22" height="26" fill="white"/>
</clipPath>
</defs>
</svg>
