<svg width="22" height="16" viewBox="0 0 22 16" fill="none" xmlns="http://www.w3.org/2000/svg">
<g clip-path="url(#clip0_8597_1070)">
<path d="M8.41071 8.60529C8.39409 8.58573 8.37339 8.57017 8.35011 8.55972C8.32682 8.54926 8.30154 8.54419 8.27609 8.54486C8.25064 8.54553 8.22566 8.55192 8.20294 8.56357C8.18022 8.57523 8.16034 8.59186 8.14473 8.61226L7.25184 9.78658C7.18482 9.8744 7.10106 9.94765 7.00555 10.002C6.91003 10.0563 6.80472 10.0906 6.69587 10.1028C6.58703 10.115 6.47688 10.1048 6.37197 10.073C6.26707 10.0411 6.16956 9.98816 6.08524 9.9173L5.20009 9.17654C5.16773 9.14942 5.12671 9.13525 5.08475 9.13669C5.0428 9.13814 5.00282 9.1551 4.97235 9.18438L2.69501 11.3809H10.2051C10.2195 11.381 10.2338 11.378 10.2471 11.3723C10.2604 11.3666 10.2724 11.3582 10.2824 11.3477C10.2925 11.3371 10.3003 11.3247 10.3055 11.311C10.3106 11.2973 10.313 11.2827 10.3125 11.2681V10.845L10.2889 10.8097L8.41071 8.60529Z" fill="white"/>
<path d="M5.61129 8.66925L6.49645 9.41219C6.51421 9.42705 6.53474 9.43813 6.55682 9.44479C6.57889 9.45145 6.60206 9.45353 6.62494 9.45093C6.64783 9.44833 6.66997 9.44109 6.69004 9.42965C6.71011 9.4182 6.72771 9.40278 6.7418 9.3843L7.63469 8.2126C7.70868 8.11553 7.80303 8.03636 7.91089 7.9808C8.01876 7.92524 8.13746 7.89469 8.25839 7.89136C8.37933 7.88802 8.49949 7.91198 8.61018 7.96151C8.72086 8.01104 8.81931 8.0849 8.8984 8.17774L10.3125 9.83747V5.16765C10.3125 5.13876 10.3012 5.11105 10.281 5.09062C10.2609 5.07019 10.2336 5.05872 10.2051 5.05872H2.4707C2.44221 5.05872 2.41489 5.07019 2.39474 5.09062C2.3746 5.11105 2.36328 5.13876 2.36328 5.16765V10.7926L4.52805 8.70673C4.67283 8.56718 4.86303 8.4863 5.06265 8.4794C5.26227 8.47249 5.45747 8.54004 5.61129 8.66925ZM3.00781 6.91061C3.00781 6.67361 3.07711 6.44193 3.20695 6.24488C3.3368 6.04782 3.52134 5.89423 3.73726 5.80354C3.95318 5.71284 4.19076 5.68911 4.41998 5.73535C4.6492 5.78159 4.85974 5.89571 5.025 6.06329C5.19025 6.23088 5.30279 6.44439 5.34839 6.67683C5.39398 6.90928 5.37058 7.15021 5.28115 7.36917C5.19171 7.58813 5.04026 7.77528 4.84594 7.90694C4.65162 8.03861 4.42316 8.10889 4.18945 8.10889C3.8762 8.10843 3.57591 7.98204 3.35441 7.75741C3.13291 7.53279 3.00827 7.22827 3.00781 6.91061ZM13.9434 7.89102H19.0996C19.2421 7.89102 19.3787 7.83364 19.4794 7.73149C19.5801 7.62934 19.6367 7.4908 19.6367 7.34635C19.6367 7.20189 19.5801 7.06335 19.4794 6.9612C19.3787 6.85906 19.2421 6.80167 19.0996 6.80167H13.9434C13.8009 6.80167 13.6643 6.85906 13.5636 6.9612C13.4628 7.06335 13.4062 7.20189 13.4062 7.34635C13.4062 7.4908 13.4628 7.62934 13.5636 7.73149C13.6643 7.83364 13.8009 7.89102 13.9434 7.89102Z" fill="white"/>
<path d="M0 14.7539C0.000454647 15.0716 0.125095 15.3761 0.346597 15.6007C0.568099 15.8253 0.86839 15.9517 1.18164 15.9522H20.8184C21.1316 15.9517 21.4319 15.8253 21.6534 15.6007C21.8749 15.3761 21.9995 15.0716 22 14.7539V2.88H0V14.7539ZM13.9434 6.14805H19.0996C19.413 6.14805 19.7136 6.2743 19.9352 6.49902C20.1568 6.72374 20.2812 7.02853 20.2812 7.34633C20.2812 7.66414 20.1568 7.96893 19.9352 8.19365C19.7136 8.41837 19.413 8.54462 19.0996 8.54462H13.9434C13.63 8.54462 13.3294 8.41837 13.1078 8.19365C12.8862 7.96893 12.7617 7.66414 12.7617 7.34633C12.7617 7.02853 12.8862 6.72374 13.1078 6.49902C13.3294 6.2743 13.63 6.14805 13.9434 6.14805ZM20.2812 9.96077C20.2812 10.0474 20.2473 10.1306 20.1869 10.1919C20.1264 10.2531 20.0445 10.2876 19.959 10.2876H14.9389C14.8535 10.2876 14.7715 10.2531 14.7111 10.1919C14.6506 10.1306 14.6167 10.0474 14.6167 9.96077C14.6167 9.8741 14.6506 9.79097 14.7111 9.72968C14.7715 9.6684 14.8535 9.63397 14.9389 9.63397H19.959C20.0445 9.63397 20.1264 9.6684 20.1869 9.72968C20.2473 9.79097 20.2812 9.8741 20.2812 9.96077ZM13.084 9.63397H13.3345C13.42 9.63397 13.5019 9.6684 13.5624 9.72968C13.6228 9.79097 13.6568 9.8741 13.6568 9.96077C13.6568 10.0474 13.6228 10.1306 13.5624 10.1919C13.5019 10.2531 13.42 10.2876 13.3345 10.2876H13.084C12.9985 10.2876 12.9165 10.2531 12.8561 10.1919C12.7957 10.1306 12.7617 10.0474 12.7617 9.96077C12.7617 9.8741 12.7957 9.79097 12.8561 9.72968C12.9165 9.6684 12.9985 9.63397 13.084 9.63397ZM13.084 11.3769H19.959C20.0445 11.3769 20.1264 11.4114 20.1869 11.4726C20.2473 11.5339 20.2812 11.6171 20.2812 11.7037C20.2812 11.7904 20.2473 11.8735 20.1869 11.9348C20.1264 11.9961 20.0445 12.0305 19.959 12.0305H13.084C12.9985 12.0305 12.9165 11.9961 12.8561 11.9348C12.7957 11.8735 12.7617 11.7904 12.7617 11.7037C12.7617 11.6171 12.7957 11.5339 12.8561 11.4726C12.9165 11.4114 12.9985 11.3769 13.084 11.3769ZM1.71875 5.16764C1.71898 4.96547 1.79827 4.77165 1.93924 4.62869C2.08021 4.48574 2.27134 4.40532 2.4707 4.40509H10.2051C10.4044 4.40532 10.5956 4.48574 10.7365 4.62869C10.8775 4.77165 10.9568 4.96547 10.957 5.16764V11.268C10.9568 11.4702 10.8775 11.664 10.7365 11.8069C10.5956 11.9499 10.4044 12.0303 10.2051 12.0305H2.4707C2.27134 12.0303 2.08021 11.9499 1.93924 11.8069C1.79827 11.664 1.71898 11.4702 1.71875 11.268V5.16764ZM2.04102 13.1199H19.959C20.0445 13.1199 20.1264 13.1543 20.1869 13.2156C20.2473 13.2769 20.2812 13.36 20.2812 13.4467C20.2812 13.5334 20.2473 13.6165 20.1869 13.6778C20.1264 13.7391 20.0445 13.7735 19.959 13.7735H2.04102C1.95555 13.7735 1.87358 13.7391 1.81314 13.6778C1.7527 13.6165 1.71875 13.5334 1.71875 13.4467C1.71875 13.36 1.7527 13.2769 1.81314 13.2156C1.87358 13.1543 1.95555 13.1199 2.04102 13.1199Z" fill="white"/>
<path d="M4.18945 7.45532C4.48609 7.45532 4.72656 7.21146 4.72656 6.91064C4.72656 6.60983 4.48609 6.36597 4.18945 6.36597C3.89282 6.36597 3.65234 6.60983 3.65234 6.91064C3.65234 7.21146 3.89282 7.45532 4.18945 7.45532Z" fill="white"/>
<path d="M20.8184 0.0477295H1.18164C0.86839 0.0481905 0.568099 0.174586 0.346597 0.399208C0.125095 0.62383 0.000454647 0.92835 0 1.24601L0 2.22643H22V1.24601C21.9995 0.92835 21.8749 0.62383 21.6534 0.399208C21.4319 0.174586 21.1316 0.0481905 20.8184 0.0477295ZM18.6699 1.46388H18.2402C18.1548 1.46388 18.0728 1.42945 18.0124 1.36816C17.9519 1.30688 17.918 1.22375 17.918 1.13708C17.918 1.0504 17.9519 0.96728 18.0124 0.905992C18.0728 0.844705 18.1548 0.810273 18.2402 0.810273H18.6699C18.7554 0.810273 18.8374 0.844705 18.8978 0.905992C18.9582 0.96728 18.9922 1.0504 18.9922 1.13708C18.9922 1.22375 18.9582 1.30688 18.8978 1.36816C18.8374 1.42945 18.7554 1.46388 18.6699 1.46388ZM20.3887 1.46388H19.959C19.8735 1.46388 19.7915 1.42945 19.7311 1.36816C19.6707 1.30688 19.6367 1.22375 19.6367 1.13708C19.6367 1.0504 19.6707 0.96728 19.7311 0.905992C19.7915 0.844705 19.8735 0.810273 19.959 0.810273H20.3887C20.4741 0.810273 20.5561 0.844705 20.6165 0.905992C20.677 0.96728 20.7109 1.0504 20.7109 1.13708C20.7109 1.22375 20.677 1.30688 20.6165 1.36816C20.5561 1.42945 20.4741 1.46388 20.3887 1.46388Z" fill="white"/>
</g>
<defs>
<clipPath id="clip0_8597_1070">
<rect width="22" height="16" fill="white"/>
</clipPath>
</defs>
</svg>
