<svg width="16" height="16" viewBox="0 0 16 16" fill="none" xmlns="http://www.w3.org/2000/svg">
<path d="M15.25 0H9.25C8.838 0 8.261 0.239 7.97 0.53L0.530997 7.969C0.461302 8.03865 0.406015 8.12135 0.368294 8.21238C0.330573 8.3034 0.311157 8.40097 0.311157 8.4995C0.311157 8.59803 0.330573 8.6956 0.368294 8.78662C0.406015 8.87765 0.461302 8.96035 0.530997 9.03L6.97 15.469C7.03965 15.5387 7.12235 15.594 7.21337 15.6317C7.3044 15.6694 7.40197 15.6888 7.5005 15.6888C7.59903 15.6888 7.6966 15.6694 7.78762 15.6317C7.87865 15.594 7.96135 15.5387 8.031 15.469L15.47 8.03C15.762 7.738 16 7.162 16 6.75V0.75C16 0.551088 15.921 0.360322 15.7803 0.21967C15.6397 0.0790176 15.4489 0 15.25 0ZM11.5 6C11.3029 5.99993 11.1078 5.96106 10.9258 5.88559C10.7438 5.81012 10.5784 5.69954 10.4391 5.56016C10.2998 5.42078 10.1894 5.25533 10.114 5.07325C10.0387 4.89118 9.99993 4.69605 10 4.499C10.0001 4.30195 10.0389 4.10685 10.1144 3.92482C10.1899 3.7428 10.3005 3.57742 10.4398 3.43813C10.5792 3.29884 10.7447 3.18837 10.9267 3.11303C11.1088 3.03768 11.3039 2.99893 11.501 2.999C11.899 2.99913 12.2806 3.15735 12.5619 3.43884C12.8432 3.72033 13.0011 4.10204 13.001 4.5C13.0009 4.89796 12.8427 5.27956 12.5612 5.56087C12.2797 5.84217 11.898 6.00013 11.5 6Z" fill="white"/>
</svg>
